<svg xmlns="http://www.w3.org/2000/svg" viewBox="0 0 640 560" width="640" height="560" role="img" aria-labelledby="rm-title rm-desc">
<title id="rm-title">Region map of the (a, b) form square</title>
<desc id="rm-desc">The unit square of the two form parameters. The curve b_n(a) = a / (2(1 - a)) for a up to 2/3 and the curve b_d(a) = 2(1 - a) / a for a from 2/3 to 1 meet at a = 2/3, b = 1. Below both curves the shape carries all three forms, d + n + h. Above b_n and left of a = 2/3 it is d + h; above b_d and right of a = 2/3 it is n + h. Seven markers show the preset habits.</desc>
<style>
  .bg{fill:#000}
  .frame{fill:none;stroke:#8a857a;stroke-width:1.2}
  .grid{stroke:#8a857a;stroke-width:0.6;opacity:0.28}
  .cross{stroke:#8a857a;stroke-width:1;opacity:0.5;stroke-dasharray:4 4}
  .curve{fill:none;stroke:#b9b2a4;stroke-width:2.1;stroke-linejoin:round;stroke-linecap:round}
  .tick{stroke:#8a857a;stroke-width:1.2}
  text{fill:#e8e4dc}
  .t-region{font:400 18px Georgia,'Times New Roman',serif;letter-spacing:0.04em;text-anchor:middle}
  .t-axis{font:400 14px Georgia,'Times New Roman',serif;fill:#b9b2a4;letter-spacing:0.05em;text-anchor:middle}
  .t-tick{font:12px system-ui,-apple-system,'Segoe UI',sans-serif;fill:#8a857a}
  .t-edge{font:12.5px system-ui,-apple-system,'Segoe UI',sans-serif;fill:#8a857a;text-anchor:middle}
  .t-mark{font:12.5px system-ui,-apple-system,'Segoe UI',sans-serif;fill:#e8e4dc}
  .t-head{font:400 15px Georgia,'Times New Roman',serif;fill:#b9b2a4;letter-spacing:0.08em;text-anchor:middle}
  .t-curve{font:12px system-ui,-apple-system,'Segoe UI',sans-serif;fill:#b9b2a4}
  .dot{fill:#e8e4dc;stroke:#000;stroke-width:1.5}
</style>
<rect class="bg" x="0" y="0" width="640" height="560"/>
<path d="M 96.00 458.00 L 566.00 458.00 L 565.35 456.94 L 564.69 455.88 L 564.04 454.82 L 563.39 453.75 L 562.74 452.69 L 562.08 451.61 L 561.43 450.54 L 560.78 449.46 L 560.13 448.38 L 559.47 447.30 L 558.82 446.21 L 558.17 445.12 L 557.51 444.03 L 556.86 442.93 L 556.21 441.83 L 555.56 440.73 L 554.90 439.62 L 554.25 438.51 L 553.60 437.40 L 552.94 436.29 L 552.29 435.17 L 551.64 434.05 L 550.99 432.92 L 550.33 431.79 L 549.68 430.66 L 549.03 429.53 L 548.38 428.39 L 547.72 427.25 L 547.07 426.10 L 546.42 424.96 L 545.76 423.81 L 545.11 422.65 L 544.46 421.49 L 543.81 420.33 L 543.15 419.17 L 542.50 418.00 L 541.85 416.83 L 541.19 415.65 L 540.54 414.48 L 539.89 413.29 L 539.24 412.11 L 538.58 410.92 L 537.93 409.73 L 537.28 408.53 L 536.63 407.33 L 535.97 406.13 L 535.32 404.92 L 534.67 403.71 L 534.01 402.50 L 533.36 401.28 L 532.71 400.06 L 532.06 398.84 L 531.40 397.61 L 530.75 396.38 L 530.10 395.14 L 529.44 393.90 L 528.79 392.66 L 528.14 391.41 L 527.49 390.16 L 526.83 388.91 L 526.18 387.65 L 525.53 386.39 L 524.88 385.12 L 524.22 383.85 L 523.57 382.58 L 522.92 381.30 L 522.26 380.02 L 521.61 378.74 L 520.96 377.45 L 520.31 376.15 L 519.65 374.86 L 519.00 373.56 L 518.35 372.25 L 517.69 370.94 L 517.04 369.63 L 516.39 368.31 L 515.74 366.99 L 515.08 365.66 L 514.43 364.33 L 513.78 363.00 L 513.13 361.66 L 512.47 360.32 L 511.82 358.97 L 511.17 357.62 L 510.51 356.27 L 509.86 354.91 L 509.21 353.55 L 508.56 352.18 L 507.90 350.81 L 507.25 349.43 L 506.60 348.05 L 505.94 346.66 L 505.29 345.27 L 504.64 343.88 L 503.99 342.48 L 503.33 341.08 L 502.68 339.67 L 502.03 338.26 L 501.38 336.84 L 500.72 335.42 L 500.07 333.99 L 499.42 332.56 L 498.76 331.13 L 498.11 329.69 L 497.46 328.24 L 496.81 326.79 L 496.15 325.34 L 495.50 323.88 L 494.85 322.42 L 494.19 320.95 L 493.54 319.48 L 492.89 318.00 L 492.24 316.52 L 491.58 315.03 L 490.93 313.54 L 490.28 312.04 L 489.62 310.54 L 488.97 309.03 L 488.32 307.52 L 487.67 306.00 L 487.01 304.48 L 486.36 302.95 L 485.71 301.42 L 485.06 299.88 L 484.40 298.34 L 483.75 296.79 L 483.10 295.23 L 482.44 293.68 L 481.79 292.11 L 481.14 290.54 L 480.49 288.97 L 479.83 287.39 L 479.18 285.80 L 478.53 284.21 L 477.88 282.62 L 477.22 281.01 L 476.57 279.41 L 475.92 277.79 L 475.26 276.18 L 474.61 274.55 L 473.96 272.92 L 473.31 271.29 L 472.65 269.65 L 472.00 268.00 L 471.35 266.35 L 470.69 264.69 L 470.04 263.03 L 469.39 261.36 L 468.74 259.68 L 468.08 258.00 L 467.43 256.31 L 466.78 254.62 L 466.13 252.92 L 465.47 251.22 L 464.82 249.50 L 464.17 247.79 L 463.51 246.06 L 462.86 244.33 L 462.21 242.60 L 461.56 240.86 L 460.90 239.11 L 460.25 237.35 L 459.60 235.59 L 458.94 233.83 L 458.29 232.05 L 457.64 230.27 L 456.99 228.49 L 456.33 226.70 L 455.68 224.90 L 455.03 223.09 L 454.38 221.28 L 453.72 219.46 L 453.07 217.63 L 452.42 215.80 L 451.76 213.96 L 451.11 212.12 L 450.46 210.27 L 449.81 208.41 L 449.15 206.54 L 448.50 204.67 L 447.85 202.79 L 447.19 200.90 L 446.54 199.01 L 445.89 197.10 L 445.24 195.20 L 444.58 193.28 L 443.93 191.36 L 443.28 189.43 L 442.62 187.49 L 441.97 185.55 L 441.32 183.60 L 440.67 181.64 L 440.01 179.67 L 439.36 177.70 L 438.71 175.71 L 438.06 173.73 L 437.40 171.73 L 436.75 169.72 L 436.10 167.71 L 435.44 165.69 L 434.79 163.66 L 434.14 161.63 L 433.49 159.59 L 432.83 157.53 L 432.18 155.48 L 431.53 153.41 L 430.88 151.33 L 430.22 149.25 L 429.57 147.16 L 428.92 145.06 L 428.26 142.95 L 427.61 140.83 L 426.96 138.71 L 426.31 136.58 L 425.65 134.44 L 425.00 132.29 L 424.35 130.13 L 423.69 127.96 L 423.04 125.78 L 422.39 123.60 L 421.74 121.41 L 421.08 119.20 L 420.43 116.99 L 419.78 114.77 L 419.13 112.55 L 418.47 110.31 L 417.82 108.06 L 417.17 105.80 L 416.51 103.54 L 415.86 101.27 L 415.21 98.98 L 414.56 96.69 L 413.90 94.39 L 413.25 92.07 L 412.60 89.75 L 411.94 87.42 L 411.29 85.08 L 410.64 82.73 L 409.99 80.37 L 409.33 78.00 L 408.03 82.71 L 406.72 87.34 L 405.42 91.90 L 404.11 96.39 L 402.81 100.80 L 401.50 105.14 L 400.19 109.42 L 398.89 113.63 L 397.58 117.77 L 396.28 121.85 L 394.97 125.86 L 393.67 129.82 L 392.36 133.71 L 391.06 137.55 L 389.75 141.33 L 388.44 145.06 L 387.14 148.73 L 385.83 152.35 L 384.53 155.91 L 383.22 159.43 L 381.92 162.89 L 380.61 166.31 L 379.31 169.68 L 378.00 173.00 L 376.69 176.28 L 375.39 179.51 L 374.08 182.69 L 372.78 185.84 L 371.47 188.94 L 370.17 192.00 L 368.86 195.02 L 367.56 198.00 L 366.25 200.94 L 364.94 203.84 L 363.64 206.71 L 362.33 209.54 L 361.03 212.33 L 359.72 215.09 L 358.42 217.81 L 357.11 220.50 L 355.81 223.16 L 354.50 225.78 L 353.19 228.37 L 351.89 230.93 L 350.58 233.45 L 349.28 235.95 L 347.97 238.42 L 346.67 240.86 L 345.36 243.27 L 344.06 245.65 L 342.75 248.00 L 341.44 250.33 L 340.14 252.62 L 338.83 254.90 L 337.53 257.14 L 336.22 259.36 L 334.92 261.56 L 333.61 263.73 L 332.31 265.88 L 331.00 268.00 L 329.69 270.10 L 328.39 272.18 L 327.08 274.23 L 325.78 276.26 L 324.47 278.27 L 323.17 280.26 L 321.86 282.22 L 320.56 284.17 L 319.25 286.10 L 317.94 288.00 L 316.64 289.88 L 315.33 291.75 L 314.03 293.60 L 312.72 295.42 L 311.42 297.23 L 310.11 299.02 L 308.81 300.79 L 307.50 302.55 L 306.19 304.28 L 304.89 306.00 L 303.58 307.70 L 302.28 309.39 L 300.97 311.05 L 299.67 312.71 L 298.36 314.34 L 297.06 315.96 L 295.75 317.57 L 294.44 319.15 L 293.14 320.73 L 291.83 322.29 L 290.53 323.83 L 289.22 325.36 L 287.92 326.87 L 286.61 328.37 L 285.31 329.86 L 284.00 331.33 L 282.69 332.79 L 281.39 334.24 L 280.08 335.67 L 278.78 337.09 L 277.47 338.50 L 276.17 339.89 L 274.86 341.27 L 273.56 342.64 L 272.25 344.00 L 270.94 345.35 L 269.64 346.68 L 268.33 348.00 L 267.03 349.31 L 265.72 350.61 L 264.42 351.90 L 263.11 353.17 L 261.81 354.44 L 260.50 355.69 L 259.19 356.94 L 257.89 358.17 L 256.58 359.39 L 255.28 360.61 L 253.97 361.81 L 252.67 363.00 L 251.36 364.18 L 250.06 365.36 L 248.75 366.52 L 247.44 367.67 L 246.14 368.82 L 244.83 369.95 L 243.53 371.08 L 242.22 372.19 L 240.92 373.30 L 239.61 374.40 L 238.31 375.49 L 237.00 376.57 L 235.69 377.64 L 234.39 378.71 L 233.08 379.76 L 231.78 380.81 L 230.47 381.85 L 229.17 382.88 L 227.86 383.91 L 226.56 384.92 L 225.25 385.93 L 223.94 386.93 L 222.64 387.92 L 221.33 388.91 L 220.03 389.89 L 218.72 390.86 L 217.42 391.82 L 216.11 392.78 L 214.81 393.72 L 213.50 394.67 L 212.19 395.60 L 210.89 396.53 L 209.58 397.45 L 208.28 398.36 L 206.97 399.27 L 205.67 400.17 L 204.36 401.07 L 203.06 401.96 L 201.75 402.84 L 200.44 403.71 L 199.14 404.58 L 197.83 405.45 L 196.53 406.30 L 195.22 407.15 L 193.92 408.00 L 192.61 408.84 L 191.31 409.67 L 190.00 410.50 L 188.69 411.32 L 187.39 412.14 L 186.08 412.95 L 184.78 413.75 L 183.47 414.55 L 182.17 415.35 L 180.86 416.14 L 179.56 416.92 L 178.25 417.70 L 176.94 418.47 L 175.64 419.24 L 174.33 420.00 L 173.03 420.76 L 171.72 421.51 L 170.42 422.26 L 169.11 423.00 L 167.81 423.74 L 166.50 424.47 L 165.19 425.20 L 163.89 425.92 L 162.58 426.64 L 161.28 427.35 L 159.97 428.06 L 158.67 428.77 L 157.36 429.47 L 156.06 430.17 L 154.75 430.86 L 153.44 431.54 L 152.14 432.23 L 150.83 432.91 L 149.53 433.58 L 148.22 434.25 L 146.92 434.92 L 145.61 435.58 L 144.31 436.24 L 143.00 436.89 L 141.69 437.54 L 140.39 438.18 L 139.08 438.83 L 137.78 439.46 L 136.47 440.10 L 135.17 440.73 L 133.86 441.35 L 132.56 441.98 L 131.25 442.59 L 129.94 443.21 L 128.64 443.82 L 127.33 444.43 L 126.03 445.03 L 124.72 445.63 L 123.42 446.23 L 122.11 446.82 L 120.81 447.41 L 119.50 448.00 L 118.19 448.58 L 116.89 449.16 L 115.58 449.74 L 114.28 450.31 L 112.97 450.88 L 111.67 451.45 L 110.36 452.01 L 109.06 452.57 L 107.75 453.13 L 106.44 453.68 L 105.14 454.23 L 103.83 454.78 L 102.53 455.32 L 101.22 455.87 L 99.92 456.40 L 98.61 456.94 L 97.31 457.47 L 96.00 458.00 Z" fill="#b9b2a4" fill-opacity="0.115"/>
<path d="M 96.00 458.00 L 97.31 457.47 L 98.61 456.94 L 99.92 456.40 L 101.22 455.87 L 102.53 455.32 L 103.83 454.78 L 105.14 454.23 L 106.44 453.68 L 107.75 453.13 L 109.06 452.57 L 110.36 452.01 L 111.67 451.45 L 112.97 450.88 L 114.28 450.31 L 115.58 449.74 L 116.89 449.16 L 118.19 448.58 L 119.50 448.00 L 120.81 447.41 L 122.11 446.82 L 123.42 446.23 L 124.72 445.63 L 126.03 445.03 L 127.33 444.43 L 128.64 443.82 L 129.94 443.21 L 131.25 442.59 L 132.56 441.98 L 133.86 441.35 L 135.17 440.73 L 136.47 440.10 L 137.78 439.46 L 139.08 438.83 L 140.39 438.18 L 141.69 437.54 L 143.00 436.89 L 144.31 436.24 L 145.61 435.58 L 146.92 434.92 L 148.22 434.25 L 149.53 433.58 L 150.83 432.91 L 152.14 432.23 L 153.44 431.54 L 154.75 430.86 L 156.06 430.17 L 157.36 429.47 L 158.67 428.77 L 159.97 428.06 L 161.28 427.35 L 162.58 426.64 L 163.89 425.92 L 165.19 425.20 L 166.50 424.47 L 167.81 423.74 L 169.11 423.00 L 170.42 422.26 L 171.72 421.51 L 173.03 420.76 L 174.33 420.00 L 175.64 419.24 L 176.94 418.47 L 178.25 417.70 L 179.56 416.92 L 180.86 416.14 L 182.17 415.35 L 183.47 414.55 L 184.78 413.75 L 186.08 412.95 L 187.39 412.14 L 188.69 411.32 L 190.00 410.50 L 191.31 409.67 L 192.61 408.84 L 193.92 408.00 L 195.22 407.15 L 196.53 406.30 L 197.83 405.45 L 199.14 404.58 L 200.44 403.71 L 201.75 402.84 L 203.06 401.96 L 204.36 401.07 L 205.67 400.17 L 206.97 399.27 L 208.28 398.36 L 209.58 397.45 L 210.89 396.53 L 212.19 395.60 L 213.50 394.67 L 214.81 393.72 L 216.11 392.78 L 217.42 391.82 L 218.72 390.86 L 220.03 389.89 L 221.33 388.91 L 222.64 387.92 L 223.94 386.93 L 225.25 385.93 L 226.56 384.92 L 227.86 383.91 L 229.17 382.88 L 230.47 381.85 L 231.78 380.81 L 233.08 379.76 L 234.39 378.71 L 235.69 377.64 L 237.00 376.57 L 238.31 375.49 L 239.61 374.40 L 240.92 373.30 L 242.22 372.19 L 243.53 371.08 L 244.83 369.95 L 246.14 368.82 L 247.44 367.67 L 248.75 366.52 L 250.06 365.36 L 251.36 364.18 L 252.67 363.00 L 253.97 361.81 L 255.28 360.61 L 256.58 359.39 L 257.89 358.17 L 259.19 356.94 L 260.50 355.69 L 261.81 354.44 L 263.11 353.17 L 264.42 351.90 L 265.72 350.61 L 267.03 349.31 L 268.33 348.00 L 269.64 346.68 L 270.94 345.35 L 272.25 344.00 L 273.56 342.64 L 274.86 341.27 L 276.17 339.89 L 277.47 338.50 L 278.78 337.09 L 280.08 335.67 L 281.39 334.24 L 282.69 332.79 L 284.00 331.33 L 285.31 329.86 L 286.61 328.37 L 287.92 326.87 L 289.22 325.36 L 290.53 323.83 L 291.83 322.29 L 293.14 320.73 L 294.44 319.15 L 295.75 317.57 L 297.06 315.96 L 298.36 314.34 L 299.67 312.71 L 300.97 311.05 L 302.28 309.39 L 303.58 307.70 L 304.89 306.00 L 306.19 304.28 L 307.50 302.55 L 308.81 300.79 L 310.11 299.02 L 311.42 297.23 L 312.72 295.42 L 314.03 293.60 L 315.33 291.75 L 316.64 289.88 L 317.94 288.00 L 319.25 286.10 L 320.56 284.17 L 321.86 282.22 L 323.17 280.26 L 324.47 278.27 L 325.78 276.26 L 327.08 274.23 L 328.39 272.18 L 329.69 270.10 L 331.00 268.00 L 332.31 265.88 L 333.61 263.73 L 334.92 261.56 L 336.22 259.36 L 337.53 257.14 L 338.83 254.90 L 340.14 252.62 L 341.44 250.33 L 342.75 248.00 L 344.06 245.65 L 345.36 243.27 L 346.67 240.86 L 347.97 238.42 L 349.28 235.95 L 350.58 233.45 L 351.89 230.93 L 353.19 228.37 L 354.50 225.78 L 355.81 223.16 L 357.11 220.50 L 358.42 217.81 L 359.72 215.09 L 361.03 212.33 L 362.33 209.54 L 363.64 206.71 L 364.94 203.84 L 366.25 200.94 L 367.56 198.00 L 368.86 195.02 L 370.17 192.00 L 371.47 188.94 L 372.78 185.84 L 374.08 182.69 L 375.39 179.51 L 376.69 176.28 L 378.00 173.00 L 379.31 169.68 L 380.61 166.31 L 381.92 162.89 L 383.22 159.43 L 384.53 155.91 L 385.83 152.35 L 387.14 148.73 L 388.44 145.06 L 389.75 141.33 L 391.06 137.55 L 392.36 133.71 L 393.67 129.82 L 394.97 125.86 L 396.28 121.85 L 397.58 117.77 L 398.89 113.63 L 400.19 109.42 L 401.50 105.14 L 402.81 100.80 L 404.11 96.39 L 405.42 91.90 L 406.72 87.34 L 408.03 82.71 L 409.33 78.00 L 96.00 78.00 Z" fill="#b9b2a4" fill-opacity="0.075"/>
<path d="M 409.33 78.00 L 409.99 80.37 L 410.64 82.73 L 411.29 85.08 L 411.94 87.42 L 412.60 89.75 L 413.25 92.07 L 413.90 94.39 L 414.56 96.69 L 415.21 98.98 L 415.86 101.27 L 416.51 103.54 L 417.17 105.80 L 417.82 108.06 L 418.47 110.31 L 419.13 112.55 L 419.78 114.77 L 420.43 116.99 L 421.08 119.20 L 421.74 121.41 L 422.39 123.60 L 423.04 125.78 L 423.69 127.96 L 424.35 130.13 L 425.00 132.29 L 425.65 134.44 L 426.31 136.58 L 426.96 138.71 L 427.61 140.83 L 428.26 142.95 L 428.92 145.06 L 429.57 147.16 L 430.22 149.25 L 430.88 151.33 L 431.53 153.41 L 432.18 155.48 L 432.83 157.53 L 433.49 159.59 L 434.14 161.63 L 434.79 163.66 L 435.44 165.69 L 436.10 167.71 L 436.75 169.72 L 437.40 171.73 L 438.06 173.73 L 438.71 175.71 L 439.36 177.70 L 440.01 179.67 L 440.67 181.64 L 441.32 183.60 L 441.97 185.55 L 442.62 187.49 L 443.28 189.43 L 443.93 191.36 L 444.58 193.28 L 445.24 195.20 L 445.89 197.10 L 446.54 199.01 L 447.19 200.90 L 447.85 202.79 L 448.50 204.67 L 449.15 206.54 L 449.81 208.41 L 450.46 210.27 L 451.11 212.12 L 451.76 213.96 L 452.42 215.80 L 453.07 217.63 L 453.72 219.46 L 454.38 221.28 L 455.03 223.09 L 455.68 224.90 L 456.33 226.70 L 456.99 228.49 L 457.64 230.27 L 458.29 232.05 L 458.94 233.83 L 459.60 235.59 L 460.25 237.35 L 460.90 239.11 L 461.56 240.86 L 462.21 242.60 L 462.86 244.33 L 463.51 246.06 L 464.17 247.79 L 464.82 249.50 L 465.47 251.22 L 466.13 252.92 L 466.78 254.62 L 467.43 256.31 L 468.08 258.00 L 468.74 259.68 L 469.39 261.36 L 470.04 263.03 L 470.69 264.69 L 471.35 266.35 L 472.00 268.00 L 472.65 269.65 L 473.31 271.29 L 473.96 272.92 L 474.61 274.55 L 475.26 276.18 L 475.92 277.79 L 476.57 279.41 L 477.22 281.01 L 477.88 282.62 L 478.53 284.21 L 479.18 285.80 L 479.83 287.39 L 480.49 288.97 L 481.14 290.54 L 481.79 292.11 L 482.44 293.68 L 483.10 295.23 L 483.75 296.79 L 484.40 298.34 L 485.06 299.88 L 485.71 301.42 L 486.36 302.95 L 487.01 304.48 L 487.67 306.00 L 488.32 307.52 L 488.97 309.03 L 489.62 310.54 L 490.28 312.04 L 490.93 313.54 L 491.58 315.03 L 492.24 316.52 L 492.89 318.00 L 493.54 319.48 L 494.19 320.95 L 494.85 322.42 L 495.50 323.88 L 496.15 325.34 L 496.81 326.79 L 497.46 328.24 L 498.11 329.69 L 498.76 331.13 L 499.42 332.56 L 500.07 333.99 L 500.72 335.42 L 501.38 336.84 L 502.03 338.26 L 502.68 339.67 L 503.33 341.08 L 503.99 342.48 L 504.64 343.88 L 505.29 345.27 L 505.94 346.66 L 506.60 348.05 L 507.25 349.43 L 507.90 350.81 L 508.56 352.18 L 509.21 353.55 L 509.86 354.91 L 510.51 356.27 L 511.17 357.62 L 511.82 358.97 L 512.47 360.32 L 513.13 361.66 L 513.78 363.00 L 514.43 364.33 L 515.08 365.66 L 515.74 366.99 L 516.39 368.31 L 517.04 369.63 L 517.69 370.94 L 518.35 372.25 L 519.00 373.56 L 519.65 374.86 L 520.31 376.15 L 520.96 377.45 L 521.61 378.74 L 522.26 380.02 L 522.92 381.30 L 523.57 382.58 L 524.22 383.85 L 524.88 385.12 L 525.53 386.39 L 526.18 387.65 L 526.83 388.91 L 527.49 390.16 L 528.14 391.41 L 528.79 392.66 L 529.44 393.90 L 530.10 395.14 L 530.75 396.38 L 531.40 397.61 L 532.06 398.84 L 532.71 400.06 L 533.36 401.28 L 534.01 402.50 L 534.67 403.71 L 535.32 404.92 L 535.97 406.13 L 536.63 407.33 L 537.28 408.53 L 537.93 409.73 L 538.58 410.92 L 539.24 412.11 L 539.89 413.29 L 540.54 414.48 L 541.19 415.65 L 541.85 416.83 L 542.50 418.00 L 543.15 419.17 L 543.81 420.33 L 544.46 421.49 L 545.11 422.65 L 545.76 423.81 L 546.42 424.96 L 547.07 426.10 L 547.72 427.25 L 548.38 428.39 L 549.03 429.53 L 549.68 430.66 L 550.33 431.79 L 550.99 432.92 L 551.64 434.05 L 552.29 435.17 L 552.94 436.29 L 553.60 437.40 L 554.25 438.51 L 554.90 439.62 L 555.56 440.73 L 556.21 441.83 L 556.86 442.93 L 557.51 444.03 L 558.17 445.12 L 558.82 446.21 L 559.47 447.30 L 560.13 448.38 L 560.78 449.46 L 561.43 450.54 L 562.08 451.61 L 562.74 452.69 L 563.39 453.75 L 564.04 454.82 L 564.69 455.88 L 565.35 456.94 L 566.00 458.00 L 566.00 78.00 L 409.33 78.00 Z" fill="#b9b2a4" fill-opacity="0.05"/>
<line class="grid" x1="96.00" y1="78.00" x2="96.00" y2="458.00"/>
<line class="grid" x1="213.50" y1="78.00" x2="213.50" y2="458.00"/>
<line class="grid" x1="331.00" y1="78.00" x2="331.00" y2="458.00"/>
<line class="grid" x1="409.33" y1="78.00" x2="409.33" y2="458.00"/>
<line class="grid" x1="566.00" y1="78.00" x2="566.00" y2="458.00"/>
<line class="grid" x1="96.00" y1="458.00" x2="566.00" y2="458.00"/>
<line class="grid" x1="96.00" y1="363.00" x2="566.00" y2="363.00"/>
<line class="grid" x1="96.00" y1="268.00" x2="566.00" y2="268.00"/>
<line class="grid" x1="96.00" y1="173.00" x2="566.00" y2="173.00"/>
<line class="grid" x1="96.00" y1="78.00" x2="566.00" y2="78.00"/>
<line class="cross" x1="409.33" y1="78.00" x2="409.33" y2="458.00"/>
<rect class="frame" x="96.00" y="78.00" width="470.00" height="380.00"/>
<path class="curve" d="M 96.00 458.00 L 97.31 457.47 L 98.61 456.94 L 99.92 456.40 L 101.22 455.87 L 102.53 455.32 L 103.83 454.78 L 105.14 454.23 L 106.44 453.68 L 107.75 453.13 L 109.06 452.57 L 110.36 452.01 L 111.67 451.45 L 112.97 450.88 L 114.28 450.31 L 115.58 449.74 L 116.89 449.16 L 118.19 448.58 L 119.50 448.00 L 120.81 447.41 L 122.11 446.82 L 123.42 446.23 L 124.72 445.63 L 126.03 445.03 L 127.33 444.43 L 128.64 443.82 L 129.94 443.21 L 131.25 442.59 L 132.56 441.98 L 133.86 441.35 L 135.17 440.73 L 136.47 440.10 L 137.78 439.46 L 139.08 438.83 L 140.39 438.18 L 141.69 437.54 L 143.00 436.89 L 144.31 436.24 L 145.61 435.58 L 146.92 434.92 L 148.22 434.25 L 149.53 433.58 L 150.83 432.91 L 152.14 432.23 L 153.44 431.54 L 154.75 430.86 L 156.06 430.17 L 157.36 429.47 L 158.67 428.77 L 159.97 428.06 L 161.28 427.35 L 162.58 426.64 L 163.89 425.92 L 165.19 425.20 L 166.50 424.47 L 167.81 423.74 L 169.11 423.00 L 170.42 422.26 L 171.72 421.51 L 173.03 420.76 L 174.33 420.00 L 175.64 419.24 L 176.94 418.47 L 178.25 417.70 L 179.56 416.92 L 180.86 416.14 L 182.17 415.35 L 183.47 414.55 L 184.78 413.75 L 186.08 412.95 L 187.39 412.14 L 188.69 411.32 L 190.00 410.50 L 191.31 409.67 L 192.61 408.84 L 193.92 408.00 L 195.22 407.15 L 196.53 406.30 L 197.83 405.45 L 199.14 404.58 L 200.44 403.71 L 201.75 402.84 L 203.06 401.96 L 204.36 401.07 L 205.67 400.17 L 206.97 399.27 L 208.28 398.36 L 209.58 397.45 L 210.89 396.53 L 212.19 395.60 L 213.50 394.67 L 214.81 393.72 L 216.11 392.78 L 217.42 391.82 L 218.72 390.86 L 220.03 389.89 L 221.33 388.91 L 222.64 387.92 L 223.94 386.93 L 225.25 385.93 L 226.56 384.92 L 227.86 383.91 L 229.17 382.88 L 230.47 381.85 L 231.78 380.81 L 233.08 379.76 L 234.39 378.71 L 235.69 377.64 L 237.00 376.57 L 238.31 375.49 L 239.61 374.40 L 240.92 373.30 L 242.22 372.19 L 243.53 371.08 L 244.83 369.95 L 246.14 368.82 L 247.44 367.67 L 248.75 366.52 L 250.06 365.36 L 251.36 364.18 L 252.67 363.00 L 253.97 361.81 L 255.28 360.61 L 256.58 359.39 L 257.89 358.17 L 259.19 356.94 L 260.50 355.69 L 261.81 354.44 L 263.11 353.17 L 264.42 351.90 L 265.72 350.61 L 267.03 349.31 L 268.33 348.00 L 269.64 346.68 L 270.94 345.35 L 272.25 344.00 L 273.56 342.64 L 274.86 341.27 L 276.17 339.89 L 277.47 338.50 L 278.78 337.09 L 280.08 335.67 L 281.39 334.24 L 282.69 332.79 L 284.00 331.33 L 285.31 329.86 L 286.61 328.37 L 287.92 326.87 L 289.22 325.36 L 290.53 323.83 L 291.83 322.29 L 293.14 320.73 L 294.44 319.15 L 295.75 317.57 L 297.06 315.96 L 298.36 314.34 L 299.67 312.71 L 300.97 311.05 L 302.28 309.39 L 303.58 307.70 L 304.89 306.00 L 306.19 304.28 L 307.50 302.55 L 308.81 300.79 L 310.11 299.02 L 311.42 297.23 L 312.72 295.42 L 314.03 293.60 L 315.33 291.75 L 316.64 289.88 L 317.94 288.00 L 319.25 286.10 L 320.56 284.17 L 321.86 282.22 L 323.17 280.26 L 324.47 278.27 L 325.78 276.26 L 327.08 274.23 L 328.39 272.18 L 329.69 270.10 L 331.00 268.00 L 332.31 265.88 L 333.61 263.73 L 334.92 261.56 L 336.22 259.36 L 337.53 257.14 L 338.83 254.90 L 340.14 252.62 L 341.44 250.33 L 342.75 248.00 L 344.06 245.65 L 345.36 243.27 L 346.67 240.86 L 347.97 238.42 L 349.28 235.95 L 350.58 233.45 L 351.89 230.93 L 353.19 228.37 L 354.50 225.78 L 355.81 223.16 L 357.11 220.50 L 358.42 217.81 L 359.72 215.09 L 361.03 212.33 L 362.33 209.54 L 363.64 206.71 L 364.94 203.84 L 366.25 200.94 L 367.56 198.00 L 368.86 195.02 L 370.17 192.00 L 371.47 188.94 L 372.78 185.84 L 374.08 182.69 L 375.39 179.51 L 376.69 176.28 L 378.00 173.00 L 379.31 169.68 L 380.61 166.31 L 381.92 162.89 L 383.22 159.43 L 384.53 155.91 L 385.83 152.35 L 387.14 148.73 L 388.44 145.06 L 389.75 141.33 L 391.06 137.55 L 392.36 133.71 L 393.67 129.82 L 394.97 125.86 L 396.28 121.85 L 397.58 117.77 L 398.89 113.63 L 400.19 109.42 L 401.50 105.14 L 402.81 100.80 L 404.11 96.39 L 405.42 91.90 L 406.72 87.34 L 408.03 82.71 L 409.33 78.00"/>
<path class="curve" d="M 409.33 78.00 L 409.99 80.37 L 410.64 82.73 L 411.29 85.08 L 411.94 87.42 L 412.60 89.75 L 413.25 92.07 L 413.90 94.39 L 414.56 96.69 L 415.21 98.98 L 415.86 101.27 L 416.51 103.54 L 417.17 105.80 L 417.82 108.06 L 418.47 110.31 L 419.13 112.55 L 419.78 114.77 L 420.43 116.99 L 421.08 119.20 L 421.74 121.41 L 422.39 123.60 L 423.04 125.78 L 423.69 127.96 L 424.35 130.13 L 425.00 132.29 L 425.65 134.44 L 426.31 136.58 L 426.96 138.71 L 427.61 140.83 L 428.26 142.95 L 428.92 145.06 L 429.57 147.16 L 430.22 149.25 L 430.88 151.33 L 431.53 153.41 L 432.18 155.48 L 432.83 157.53 L 433.49 159.59 L 434.14 161.63 L 434.79 163.66 L 435.44 165.69 L 436.10 167.71 L 436.75 169.72 L 437.40 171.73 L 438.06 173.73 L 438.71 175.71 L 439.36 177.70 L 440.01 179.67 L 440.67 181.64 L 441.32 183.60 L 441.97 185.55 L 442.62 187.49 L 443.28 189.43 L 443.93 191.36 L 444.58 193.28 L 445.24 195.20 L 445.89 197.10 L 446.54 199.01 L 447.19 200.90 L 447.85 202.79 L 448.50 204.67 L 449.15 206.54 L 449.81 208.41 L 450.46 210.27 L 451.11 212.12 L 451.76 213.96 L 452.42 215.80 L 453.07 217.63 L 453.72 219.46 L 454.38 221.28 L 455.03 223.09 L 455.68 224.90 L 456.33 226.70 L 456.99 228.49 L 457.64 230.27 L 458.29 232.05 L 458.94 233.83 L 459.60 235.59 L 460.25 237.35 L 460.90 239.11 L 461.56 240.86 L 462.21 242.60 L 462.86 244.33 L 463.51 246.06 L 464.17 247.79 L 464.82 249.50 L 465.47 251.22 L 466.13 252.92 L 466.78 254.62 L 467.43 256.31 L 468.08 258.00 L 468.74 259.68 L 469.39 261.36 L 470.04 263.03 L 470.69 264.69 L 471.35 266.35 L 472.00 268.00 L 472.65 269.65 L 473.31 271.29 L 473.96 272.92 L 474.61 274.55 L 475.26 276.18 L 475.92 277.79 L 476.57 279.41 L 477.22 281.01 L 477.88 282.62 L 478.53 284.21 L 479.18 285.80 L 479.83 287.39 L 480.49 288.97 L 481.14 290.54 L 481.79 292.11 L 482.44 293.68 L 483.10 295.23 L 483.75 296.79 L 484.40 298.34 L 485.06 299.88 L 485.71 301.42 L 486.36 302.95 L 487.01 304.48 L 487.67 306.00 L 488.32 307.52 L 488.97 309.03 L 489.62 310.54 L 490.28 312.04 L 490.93 313.54 L 491.58 315.03 L 492.24 316.52 L 492.89 318.00 L 493.54 319.48 L 494.19 320.95 L 494.85 322.42 L 495.50 323.88 L 496.15 325.34 L 496.81 326.79 L 497.46 328.24 L 498.11 329.69 L 498.76 331.13 L 499.42 332.56 L 500.07 333.99 L 500.72 335.42 L 501.38 336.84 L 502.03 338.26 L 502.68 339.67 L 503.33 341.08 L 503.99 342.48 L 504.64 343.88 L 505.29 345.27 L 505.94 346.66 L 506.60 348.05 L 507.25 349.43 L 507.90 350.81 L 508.56 352.18 L 509.21 353.55 L 509.86 354.91 L 510.51 356.27 L 511.17 357.62 L 511.82 358.97 L 512.47 360.32 L 513.13 361.66 L 513.78 363.00 L 514.43 364.33 L 515.08 365.66 L 515.74 366.99 L 516.39 368.31 L 517.04 369.63 L 517.69 370.94 L 518.35 372.25 L 519.00 373.56 L 519.65 374.86 L 520.31 376.15 L 520.96 377.45 L 521.61 378.74 L 522.26 380.02 L 522.92 381.30 L 523.57 382.58 L 524.22 383.85 L 524.88 385.12 L 525.53 386.39 L 526.18 387.65 L 526.83 388.91 L 527.49 390.16 L 528.14 391.41 L 528.79 392.66 L 529.44 393.90 L 530.10 395.14 L 530.75 396.38 L 531.40 397.61 L 532.06 398.84 L 532.71 400.06 L 533.36 401.28 L 534.01 402.50 L 534.67 403.71 L 535.32 404.92 L 535.97 406.13 L 536.63 407.33 L 537.28 408.53 L 537.93 409.73 L 538.58 410.92 L 539.24 412.11 L 539.89 413.29 L 540.54 414.48 L 541.19 415.65 L 541.85 416.83 L 542.50 418.00 L 543.15 419.17 L 543.81 420.33 L 544.46 421.49 L 545.11 422.65 L 545.76 423.81 L 546.42 424.96 L 547.07 426.10 L 547.72 427.25 L 548.38 428.39 L 549.03 429.53 L 549.68 430.66 L 550.33 431.79 L 550.99 432.92 L 551.64 434.05 L 552.29 435.17 L 552.94 436.29 L 553.60 437.40 L 554.25 438.51 L 554.90 439.62 L 555.56 440.73 L 556.21 441.83 L 556.86 442.93 L 557.51 444.03 L 558.17 445.12 L 558.82 446.21 L 559.47 447.30 L 560.13 448.38 L 560.78 449.46 L 561.43 450.54 L 562.08 451.61 L 562.74 452.69 L 563.39 453.75 L 564.04 454.82 L 564.69 455.88 L 565.35 456.94 L 566.00 458.00"/>
<text class="t-curve" x="298.50" y="302.55" text-anchor="end">b<tspan font-size="9" dy="3">n</tspan><tspan dy="-3">(a) = a/(2(1−a))</tspan></text>
<text class="t-curve" x="510.00" y="373.56" text-anchor="end">b<tspan font-size="9" dy="3">d</tspan><tspan dy="-3">(a) = 2(1−a)/a</tspan></text>
<text class="t-region" x="260.50" y="404.80">d + n + h</text>
<text class="t-region" x="199.40" y="192.00">d + h</text>
<text class="t-region" x="500.20" y="230.00">n + h</text>
<line class="tick" x1="96.00" y1="458.00" x2="96.00" y2="464.00"/>
<text class="t-tick" x="96.00" y="478.00" text-anchor="middle">0</text>
<line class="tick" x1="213.50" y1="458.00" x2="213.50" y2="464.00"/>
<text class="t-tick" x="213.50" y="478.00" text-anchor="middle">0.25</text>
<line class="tick" x1="331.00" y1="458.00" x2="331.00" y2="464.00"/>
<text class="t-tick" x="331.00" y="478.00" text-anchor="middle">0.5</text>
<line class="tick" x1="409.33" y1="458.00" x2="409.33" y2="464.00"/>
<text class="t-tick" x="409.33" y="478.00" text-anchor="middle">2/3</text>
<line class="tick" x1="566.00" y1="458.00" x2="566.00" y2="464.00"/>
<text class="t-tick" x="566.00" y="478.00" text-anchor="middle">1</text>
<line class="tick" x1="90.00" y1="458.00" x2="96.00" y2="458.00"/>
<text class="t-tick" x="86.00" y="462.00" text-anchor="end">0</text>
<line class="tick" x1="90.00" y1="363.00" x2="96.00" y2="363.00"/>
<text class="t-tick" x="86.00" y="367.00" text-anchor="end">0.25</text>
<line class="tick" x1="90.00" y1="268.00" x2="96.00" y2="268.00"/>
<text class="t-tick" x="86.00" y="272.00" text-anchor="end">0.5</text>
<line class="tick" x1="90.00" y1="173.00" x2="96.00" y2="173.00"/>
<text class="t-tick" x="86.00" y="177.00" text-anchor="end">0.75</text>
<line class="tick" x1="90.00" y1="78.00" x2="96.00" y2="78.00"/>
<text class="t-tick" x="86.00" y="82.00" text-anchor="end">1</text>
<circle class="dot" cx="96.00" cy="458.00" r="4"/>
<text class="t-mark" x="105.00" y="449.00" text-anchor="start">d</text>
<circle class="dot" cx="331.00" cy="458.00" r="4"/>
<text class="t-mark" x="331.00" y="447.00" text-anchor="middle">d+n</text>
<circle class="dot" cx="566.00" cy="458.00" r="4"/>
<text class="t-mark" x="553.00" y="448.00" text-anchor="end">n</text>
<circle class="dot" cx="566.00" cy="268.00" r="4"/>
<text class="t-mark" x="557.00" y="272.00" text-anchor="end">n+h</text>
<circle class="dot" cx="566.00" cy="78.00" r="4"/>
<text class="t-mark" x="557.00" y="95.00" text-anchor="end">h</text>
<circle class="dot" cx="96.00" cy="268.00" r="4"/>
<text class="t-mark" x="105.00" y="272.00" text-anchor="start">d+h</text>
<circle class="dot" cx="331.00" cy="344.00" r="4"/>
<text class="t-mark" x="340.00" y="338.00" text-anchor="start">d+n+h</text>
<text class="t-head" x="331" y="30">THE (a, b) FORM SQUARE</text>
<text class="t-edge" x="331" y="62">b = 1 — pure {321}, for every a</text>
<text class="t-axis" x="331" y="502">a — n-depth</text>
<text class="t-edge" x="331" y="526">b = 0 — the d+n path: d → d+n → n</text>
<text class="t-axis" x="22" y="268" transform="rotate(-90 22 268)">b — {321} depth</text>
<text class="t-edge" x="50" y="268" transform="rotate(-90 50 268)">a = 0 — d, then d+h</text>
<text class="t-edge" x="592" y="268" transform="rotate(-90 592 268)">a = 1 — n, then n+h</text>
</svg>
